# Blender v3.2.1 OBJ File: 'EXP.blend'
# www.blender.org
mtllib EXP.mtl
o Cube
v 0.019736 0.045000 -0.200000
v 0.019736 -0.045000 -0.200000
v 0.019736 0.045000 0.200000
v 0.019736 -0.045000 0.200000
v -0.020264 0.045000 -0.200000
v -0.020264 -0.045000 -0.200000
v -0.020264 0.045000 0.200000
v -0.020264 -0.045000 0.200000
v -0.390000 0.045000 -0.200000
v -0.390000 -0.045000 -0.200000
v -0.390000 0.045000 0.200000
v -0.390000 -0.045000 0.200000
v -0.430000 0.045000 -0.200000
v -0.430000 -0.045000 -0.200000
v -0.430000 0.045000 0.200000
v -0.430000 -0.045000 0.200000
v -0.580000 0.045000 0.198161
v -0.580000 0.062000 0.198161
v -0.580000 0.045000 0.126038
v -0.580000 0.062000 0.126038
v 0.018183 0.045000 0.198161
v 0.018183 0.062000 0.198161
v 0.018183 0.045000 0.126038
v 0.018183 0.062000 0.126038
v -0.580000 0.045000 0.037475
v -0.580000 0.062000 0.037475
v -0.580000 0.045000 -0.037525
v -0.580000 0.062000 -0.037525
v 0.020962 0.045000 0.037475
v 0.020962 0.062000 0.037475
v 0.020962 0.045000 -0.037525
v 0.020962 0.062000 -0.037525
v -0.580000 0.045000 -0.125050
v -0.580000 0.062000 -0.125050
v -0.580000 0.045000 -0.198638
v -0.580000 0.062000 -0.198638
v 0.021184 0.045000 -0.125050
v 0.021184 0.062000 -0.125050
v 0.021184 0.045000 -0.198638
v 0.021184 0.062000 -0.198638
v -0.414186 0.062000 -0.179590
v -0.410186 0.062000 -0.179590
v -0.414186 0.062000 -0.183590
v -0.410186 0.062000 -0.183590
v -0.412205 0.062000 -0.141191
v -0.416205 0.062000 -0.141191
v -0.412205 0.062000 -0.137191
v -0.416205 0.062000 -0.137191
v -0.394033 0.062000 -0.025096
v -0.398033 0.062000 -0.025096
v -0.394033 0.062000 -0.021096
v -0.398033 0.062000 -0.021096
v -0.001834 0.062000 -0.184280
v 0.002166 0.062000 -0.184280
v -0.001834 0.062000 -0.188280
v 0.002166 0.062000 -0.188280
v -0.415195 0.062000 0.016256
v -0.411195 0.062000 0.016256
v -0.415195 0.062000 0.012256
v -0.411195 0.062000 0.012256
v -0.407157 0.062000 0.179837
v -0.411157 0.062000 0.179837
v -0.407157 0.062000 0.183837
v -0.411157 0.062000 0.183837
v -0.422262 0.062000 0.139418
v -0.418262 0.062000 0.139418
v -0.422262 0.062000 0.135418
v -0.418262 0.062000 0.135418
v 0.010784 0.062000 0.175799
v 0.006784 0.062000 0.175799
v 0.010784 0.062000 0.179799
v 0.006784 0.062000 0.179799
v -0.000811 0.062000 0.133646
v 0.003189 0.062000 0.133646
v -0.000811 0.062000 0.129646
v 0.003189 0.062000 0.129646
v 0.006110 0.062000 0.022735
v 0.002110 0.062000 0.022735
v 0.006110 0.062000 0.026735
v 0.002110 0.062000 0.026735
v 0.004447 0.062000 -0.030518
v 0.008447 0.062000 -0.030518
v 0.004447 0.062000 -0.034518
v 0.008447 0.062000 -0.034518
v 0.006110 0.062000 -0.143766
v 0.002110 0.062000 -0.143766
v 0.006110 0.062000 -0.139766
v 0.002110 0.062000 -0.139766
vt 0.680891 0.231330
vt 0.731688 0.231330
vt 0.731688 0.739302
vt 0.680891 0.739302
vt 0.388807 0.739302
vt 0.388807 0.853596
vt 0.338009 0.853596
vt 0.338009 0.739302
vt 0.401506 0.739302
vt 0.287212 0.739302
vt 0.287212 0.231330
vt 0.401506 0.231330
vt 0.630093 0.231330
vt 0.680891 0.231330
vt 0.680891 0.739302
vt 0.630093 0.739302
vt 0.515800 0.739302
vt 0.401506 0.739302
vt 0.401506 0.231330
vt 0.515800 0.231330
vt 0.338009 0.739302
vt 0.338009 0.853596
vt 0.287212 0.853596
vt 0.287212 0.739302
vt 0.731688 0.231330
vt 0.782485 0.231330
vt 0.782485 0.739302
vt 0.731688 0.739302
vt 0.490401 0.739302
vt 0.490401 0.853596
vt 0.439604 0.853596
vt 0.439604 0.739302
vt 0.630093 0.739302
vt 0.515800 0.739302
vt 0.515800 0.231330
vt 0.630093 0.231330
vt 0.782485 0.231330
vt 0.833282 0.231330
vt 0.833282 0.739302
vt 0.782485 0.739302
vt 0.287212 0.739302
vt 0.172919 0.739302
vt 0.172919 0.231330
vt 0.287212 0.231330
vt 0.439604 0.739302
vt 0.439604 0.853596
vt 0.388807 0.853596
vt 0.388807 0.739302
vt 0.198333 0.125000
vt 0.170000 0.125000
vt 0.170000 0.000000
vt 0.198333 0.000000
vt 0.028333 1.000000
vt 0.000000 1.000000
vt 0.000000 0.000000
vt 0.028333 0.000000
vt 0.226667 0.125000
vt 0.198333 0.125000
vt 0.198333 0.000000
vt 0.226667 0.000000
vt 0.085000 1.000000
vt 0.056667 1.000000
vt 0.056667 0.000000
vt 0.085000 0.000000
vt 0.198333 0.250000
vt 0.170000 0.250000
vt 0.170000 0.125000
vt 0.198333 0.125000
vt 0.141667 1.000000
vt 0.113333 1.000000
vt 0.113333 0.000000
vt 0.141667 0.000000
vt 0.255000 0.250000
vt 0.226667 0.250000
vt 0.226667 0.125000
vt 0.255000 0.125000
vt 0.056667 1.000000
vt 0.028333 1.000000
vt 0.028333 0.000000
vt 0.056667 0.000000
vt 0.255000 0.125000
vt 0.226667 0.125000
vt 0.226667 0.000000
vt 0.255000 0.000000
vt 0.113333 1.000000
vt 0.085000 1.000000
vt 0.085000 0.000000
vt 0.113333 0.000000
vt 0.226667 0.250000
vt 0.198333 0.250000
vt 0.198333 0.125000
vt 0.226667 0.125000
vt 0.170000 1.000000
vt 0.141667 1.000000
vt 0.141667 0.000000
vt 0.170000 0.000000
vt 0.614286 0.000000
vt 0.614286 0.995009
vt 0.494317 0.995009
vt 0.494317 0.000000
vt 0.734256 0.000000
vt 0.734256 0.995009
vt 0.614286 0.995009
vt 0.614286 0.000000
vt 0.124754 0.000000
vt 0.124754 0.999632
vt 0.000000 0.999632
vt 0.000000 0.000000
vt 0.249508 0.000000
vt 0.249508 0.999632
vt 0.124754 0.999632
vt 0.124754 0.000000
vt 0.494317 0.000000
vt 0.494317 1.000000
vt 0.371913 1.000000
vt 0.371913 0.000000
vt 0.371913 0.000000
vt 0.371913 1.000000
vt 0.249508 1.000000
vt 0.249508 0.000000
vt 0.004198 0.998252
vt 0.004187 -0.002767
vt 1.005205 -0.002756
vt 1.005205 0.998252
vt 0.004198 0.998252
vt 0.004187 -0.002767
vt 1.005205 -0.002756
vt 1.005205 0.998252
vt 0.004198 0.998252
vt 0.004187 -0.002767
vt 1.005205 -0.002756
vt 1.005205 0.998252
vt 0.004198 0.998252
vt 0.004187 -0.002767
vt 1.005205 -0.002756
vt 1.005205 0.998252
vt 0.004198 0.998252
vt 0.004187 -0.002767
vt 1.005205 -0.002756
vt 1.005205 0.998252
vt 0.004198 0.998252
vt 0.004187 -0.002767
vt 1.005205 -0.002756
vt 1.005205 0.998252
vt 0.004198 0.998252
vt 0.004187 -0.002767
vt 1.005205 -0.002756
vt 1.005205 0.998252
vt 0.004198 0.998252
vt 0.004187 -0.002767
vt 1.005205 -0.002756
vt 1.005205 0.998252
vt 0.004198 0.998252
vt 0.004187 -0.002767
vt 1.005205 -0.002756
vt 1.005205 0.998252
vt 0.004198 0.998252
vt 0.004187 -0.002767
vt 1.005205 -0.002756
vt 1.005205 0.998252
vt 0.004198 0.998252
vt 0.004187 -0.002767
vt 1.005205 -0.002756
vt 1.005205 0.998252
vt 0.004198 0.998252
vt 0.004187 -0.002767
vt 1.005205 -0.002756
vt 1.005205 0.998252
vn 0.0000 1.0000 0.0000
vn 0.0000 0.0000 1.0000
vn -1.0000 0.0000 0.0000
vn 0.0000 -1.0000 0.0000
vn 1.0000 0.0000 0.0000
vn 0.0000 0.0000 -1.0000
usemtl TreeEnd005
s off
f 1/1/1 5/2/1 7/3/1 3/4/1
f 4/5/2 3/6/2 7/7/2 8/8/2
f 8/9/3 7/10/3 5/11/3 6/12/3
f 6/13/4 2/14/4 4/15/4 8/16/4
f 2/17/5 1/18/5 3/19/5 4/20/5
f 6/21/6 5/22/6 1/23/6 2/24/6
f 9/25/1 13/26/1 15/27/1 11/28/1
f 12/29/2 11/30/2 15/31/2 16/32/2
f 16/33/3 15/34/3 13/35/3 14/36/3
f 14/37/4 10/38/4 12/39/4 16/40/4
f 10/41/5 9/42/5 11/43/5 12/44/5
f 14/45/6 13/46/6 9/47/6 10/48/6
usemtl PaintedWood009
f 17/49/3 18/50/3 20/51/3 19/52/3
f 19/53/6 20/54/6 24/55/6 23/56/6
f 23/57/5 24/58/5 22/59/5 21/60/5
f 21/61/2 22/62/2 18/63/2 17/64/2
f 25/65/3 26/66/3 28/67/3 27/68/3
f 27/69/6 28/70/6 32/71/6 31/72/6
f 31/73/5 32/74/5 30/75/5 29/76/5
f 29/77/2 30/78/2 26/79/2 25/80/2
f 33/81/3 34/82/3 36/83/3 35/84/3
f 35/85/6 36/86/6 40/87/6 39/88/6
f 39/89/5 40/90/5 38/91/5 37/92/5
f 37/93/2 38/94/2 34/95/2 33/96/2
usemtl Wood046
f 19/97/4 23/98/4 21/99/4 17/100/4
f 24/101/1 20/102/1 18/103/1 22/104/1
f 27/105/4 31/106/4 29/107/4 25/108/4
f 32/109/1 28/110/1 26/111/1 30/112/1
f 35/113/4 39/114/4 37/115/4 33/116/4
f 40/117/1 36/118/1 34/119/1 38/120/1
usemtl metal_nail
f 41/121/1 42/122/1 44/123/1 43/124/1
f 48/125/1 47/126/1 45/127/1 46/128/1
f 52/129/1 51/130/1 49/131/1 50/132/1
f 53/133/1 54/134/1 56/135/1 55/136/1
f 57/137/1 58/138/1 60/139/1 59/140/1
f 64/141/1 63/142/1 61/143/1 62/144/1
f 65/145/1 66/146/1 68/147/1 67/148/1
f 72/149/1 71/150/1 69/151/1 70/152/1
f 73/153/1 74/154/1 76/155/1 75/156/1
f 80/157/1 79/158/1 77/159/1 78/160/1
f 81/161/1 82/162/1 84/163/1 83/164/1
f 88/165/1 87/166/1 85/167/1 86/168/1
